<svg width="18" height="18" viewBox="0 0 18 18" fill="none" xmlns="http://www.w3.org/2000/svg">
<path d="M13.3748 8.98145C13.4751 8.88574 13.5959 8.83333 13.7372 8.82422C13.883 8.81055 14.0038 8.8584 14.0995 8.96777C14.2043 9.06348 14.2567 9.18652 14.2567 9.33691C14.2567 9.4873 14.2066 9.61263 14.1063 9.71289L9.0477 14.7715C8.62387 15.1908 8.16586 15.5007 7.67368 15.7012C7.18149 15.9017 6.68019 15.9974 6.16977 15.9883C5.66391 15.9837 5.174 15.8789 4.70004 15.6738C4.22608 15.4733 3.79998 15.1839 3.42172 14.8057C3.03891 14.4274 2.74724 14.0013 2.54672 13.5273C2.3462 13.0534 2.24138 12.5635 2.23227 12.0576C2.22315 11.5472 2.31886 11.0459 2.51938 10.5537C2.7199 10.0615 3.03207 9.60352 3.4559 9.17969L10.3465 2.28223C10.7749 1.85384 11.2352 1.57357 11.7274 1.44141C12.2196 1.30924 12.7004 1.30924 13.1698 1.44141C13.6437 1.56901 14.0607 1.81283 14.4207 2.17285C14.7944 2.54655 15.0451 2.9681 15.1727 3.4375C15.3003 3.9069 15.2957 4.38542 15.159 4.87305C15.0223 5.36068 14.7398 5.81868 14.3114 6.24707L7.58481 12.9736C7.35239 13.2061 7.09262 13.3633 6.80551 13.4453C6.52296 13.5273 6.24041 13.5342 5.95786 13.4658C5.6753 13.3929 5.42237 13.2448 5.19907 13.0215C4.99399 12.8164 4.85499 12.5726 4.78207 12.29C4.71371 12.0075 4.71599 11.7204 4.78891 11.4287C4.86638 11.137 5.02133 10.875 5.25375 10.6426L9.95004 5.94629C10.0503 5.84147 10.1665 5.78678 10.2987 5.78223C10.4354 5.77767 10.5539 5.82324 10.6541 5.91895C10.7544 6.01921 10.8 6.1377 10.7909 6.27441C10.7863 6.40658 10.7339 6.52507 10.6336 6.62988L5.95102 11.2988C5.7824 11.472 5.70948 11.6497 5.73227 11.832C5.75506 12.0143 5.82569 12.1647 5.94418 12.2832C6.06267 12.3971 6.21306 12.4678 6.39536 12.4951C6.57765 12.5179 6.7531 12.4427 6.92172 12.2695L13.6209 5.57031C13.8807 5.31055 14.063 5.01888 14.1678 4.69531C14.2772 4.37174 14.3 4.05273 14.2362 3.73828C14.1724 3.41927 14.0151 3.13216 13.7645 2.87695C13.5138 2.63086 13.229 2.47591 12.91 2.41211C12.591 2.34831 12.2697 2.36882 11.9461 2.47363C11.6226 2.57845 11.3309 2.76302 11.0711 3.02734L4.21469 9.87695C3.78175 10.3145 3.4992 10.7861 3.36703 11.292C3.23943 11.7933 3.24627 12.2855 3.38754 12.7686C3.53338 13.2516 3.79314 13.68 4.16684 14.0537C4.54054 14.432 4.96892 14.6917 5.452 14.833C5.93963 14.9788 6.43409 14.9857 6.93539 14.8535C7.44125 14.7259 7.91293 14.4434 8.35043 14.0059L13.3748 8.98145Z" fill="#3333FF"/>
</svg>
