<svg width="117" height="16" viewBox="0 0 117 16" fill="none" xmlns="http://www.w3.org/2000/svg">
<path d="M7.863 4.827C8.01033 5.04233 8.17467 5.303 8.356 5.609C8.53733 5.915 8.713 6.22667 8.883 6.544C9.06433 6.85 9.21733 7.11067 9.342 7.326L8.39 7.734C8.27667 7.496 8.135 7.22967 7.965 6.935C7.795 6.629 7.61933 6.323 7.438 6.017C7.268 5.69967 7.10933 5.43333 6.962 5.218L7.863 4.827ZM9.852 4.062C9.99933 4.25467 10.1637 4.504 10.345 4.81C10.5377 5.10467 10.7247 5.405 10.906 5.711C11.0873 6.00567 11.2347 6.272 11.348 6.51L10.43 6.918C10.294 6.68 10.1353 6.41367 9.954 6.119C9.784 5.813 9.60833 5.51267 9.427 5.218C9.257 4.92333 9.09267 4.674 8.934 4.47L9.852 4.062ZM8.747 1.954C8.56567 2.09 8.36167 2.26 8.135 2.464C7.90833 2.65667 7.72133 2.80967 7.574 2.923C7.27933 3.18367 6.92233 3.48967 6.503 3.841C6.08367 4.181 5.636 4.54367 5.16 4.929C4.69533 5.303 4.24767 5.66567 3.817 6.017C3.38633 6.357 3.018 6.663 2.712 6.935C2.372 7.22967 2.13967 7.47333 2.015 7.666C1.90167 7.84733 1.90733 8.03433 2.032 8.227C2.15667 8.41967 2.40033 8.67467 2.763 8.992C3.069 9.24133 3.426 9.536 3.834 9.876C4.242 10.2047 4.67833 10.5617 5.143 10.947C5.60767 11.3323 6.07233 11.729 6.537 12.137C7.013 12.545 7.472 12.9473 7.914 13.344C8.356 13.7407 8.75833 14.1203 9.121 14.483L7.914 15.605C7.73267 15.401 7.54 15.1913 7.336 14.976C7.14333 14.772 6.945 14.568 6.741 14.364C6.44633 14.058 6.07233 13.701 5.619 13.293C5.177 12.885 4.701 12.46 4.191 12.018C3.69233 11.576 3.19933 11.151 2.712 10.743C2.22467 10.3237 1.777 9.94967 1.369 9.621C0.836333 9.16767 0.496333 8.771 0.349 8.431C0.201667 8.07967 0.224334 7.734 0.417 7.394C0.621 7.054 0.978 6.67433 1.488 6.255C1.81667 5.983 2.202 5.66567 2.644 5.303C3.09733 4.94033 3.56767 4.56067 4.055 4.164C4.54233 3.756 5.00133 3.365 5.432 2.991C5.86267 2.60567 6.21967 2.26567 6.503 1.971C6.673 1.801 6.85433 1.60833 7.047 1.393C7.23967 1.17767 7.38133 0.990666 7.472 0.832L8.747 1.954ZM23.129 1.886C23.061 1.97667 22.976 2.10133 22.874 2.26C22.7833 2.40733 22.687 2.56033 22.585 2.719C22.3923 3.00233 22.16 3.382 21.888 3.858C21.6273 4.32267 21.344 4.827 21.038 5.371C20.732 5.90367 20.4317 6.43067 20.137 6.952C19.8537 7.47333 19.6043 7.94367 19.389 8.363C19.797 7.989 20.2163 7.72267 20.647 7.564C21.089 7.394 21.514 7.309 21.922 7.309C22.4887 7.309 22.9533 7.48467 23.316 7.836C23.69 8.18733 23.8883 8.69733 23.911 9.366C23.9223 9.706 23.928 10.0687 23.928 10.454C23.9393 10.828 23.945 11.1963 23.945 11.559C23.945 11.9103 23.9563 12.2277 23.979 12.511C24.013 12.9417 24.1603 13.2533 24.421 13.446C24.6817 13.6273 24.9933 13.718 25.356 13.718C25.8207 13.718 26.24 13.5933 26.614 13.344C26.9993 13.0833 27.3337 12.7433 27.617 12.324C27.9117 11.9047 28.1553 11.4513 28.348 10.964C28.5407 10.4767 28.6937 10.012 28.807 9.57L29.929 10.488C29.6343 11.3947 29.2717 12.1993 28.841 12.902C28.4103 13.5933 27.889 14.1373 27.277 14.534C26.6763 14.9307 25.9623 15.129 25.135 15.129C24.5343 15.129 24.0527 15.0157 23.69 14.789C23.3387 14.5737 23.0837 14.3017 22.925 13.973C22.7777 13.6443 22.6927 13.31 22.67 12.97C22.6587 12.6413 22.6473 12.2843 22.636 11.899C22.636 11.5137 22.636 11.134 22.636 10.76C22.636 10.386 22.6247 10.046 22.602 9.74C22.5793 9.366 22.4603 9.077 22.245 8.873C22.041 8.65767 21.7463 8.55 21.361 8.55C20.9077 8.55 20.4657 8.686 20.035 8.958C19.6157 9.21867 19.2303 9.55867 18.879 9.978C18.539 10.3973 18.2613 10.8337 18.046 11.287C17.9213 11.5363 17.7797 11.8367 17.621 12.188C17.4737 12.5393 17.332 12.902 17.196 13.276C17.06 13.65 16.9353 14.0013 16.822 14.33C16.72 14.6587 16.6407 14.9307 16.584 15.146L15.122 14.636C15.326 14.058 15.5923 13.4007 15.921 12.664C16.2497 11.9273 16.6067 11.1567 16.992 10.352C17.3773 9.536 17.774 8.73133 18.182 7.938C18.59 7.13333 18.9753 6.37967 19.338 5.677C19.712 4.963 20.0463 4.33967 20.341 3.807C20.6357 3.263 20.8567 2.855 21.004 2.583C21.106 2.379 21.208 2.175 21.31 1.971C21.4233 1.75567 21.531 1.52333 21.633 1.274L23.129 1.886ZM40.401 1.002C40.3783 1.14933 40.3557 1.31367 40.333 1.495C40.3217 1.67633 40.3103 1.89167 40.299 2.141C40.299 2.311 40.2933 2.566 40.282 2.906C40.282 3.246 40.282 3.63133 40.282 4.062C40.282 4.48133 40.282 4.90633 40.282 5.337C40.282 5.76767 40.282 6.16433 40.282 6.527C40.282 7.09367 40.2933 7.68867 40.316 8.312C40.3387 8.93533 40.367 9.54167 40.401 10.131C40.435 10.7203 40.4633 11.2587 40.486 11.746C40.5087 12.2333 40.52 12.6187 40.52 12.902C40.52 13.2987 40.4237 13.6783 40.231 14.041C40.0497 14.4037 39.738 14.6983 39.296 14.925C38.8653 15.163 38.276 15.282 37.528 15.282C36.304 15.282 35.369 15.0667 34.723 14.636C34.077 14.2167 33.754 13.599 33.754 12.783C33.754 12.2617 33.907 11.8083 34.213 11.423C34.5303 11.0377 34.9837 10.7373 35.573 10.522C36.1623 10.2953 36.865 10.182 37.681 10.182C38.5763 10.182 39.415 10.2897 40.197 10.505C40.9903 10.709 41.7157 10.9697 42.373 11.287C43.0303 11.6043 43.614 11.9387 44.124 12.29C44.634 12.63 45.0533 12.936 45.382 13.208L44.6 14.415C44.2147 14.0523 43.767 13.6897 43.257 13.327C42.7583 12.9643 42.2087 12.63 41.608 12.324C41.0187 12.018 40.3783 11.7743 39.687 11.593C39.007 11.4003 38.2817 11.304 37.511 11.304C36.695 11.304 36.0717 11.44 35.641 11.712C35.2217 11.984 35.012 12.3183 35.012 12.715C35.012 12.9643 35.0913 13.1967 35.25 13.412C35.4087 13.616 35.6637 13.7803 36.015 13.905C36.3663 14.0297 36.8197 14.092 37.375 14.092C37.7037 14.092 38.004 14.0523 38.276 13.973C38.548 13.8823 38.7633 13.7293 38.922 13.514C39.092 13.2987 39.177 12.9983 39.177 12.613C39.177 12.2843 39.1657 11.8593 39.143 11.338C39.1317 10.8053 39.1147 10.2443 39.092 9.655C39.0693 9.05433 39.0467 8.47633 39.024 7.921C39.0127 7.36567 39.007 6.901 39.007 6.527C39.007 6.14167 39.007 5.75067 39.007 5.354C39.007 4.946 39.007 4.54367 39.007 4.147C39.007 3.75033 39.007 3.37067 39.007 3.008C39.0183 2.64533 39.024 2.31667 39.024 2.022C39.024 1.886 39.0183 1.71033 39.007 1.495C38.9957 1.27967 38.9787 1.11533 38.956 1.002H40.401ZM33.89 2.855C34.1733 2.90033 34.502 2.94567 34.876 2.991C35.25 3.03633 35.641 3.08167 36.049 3.127C36.4683 3.161 36.865 3.18933 37.239 3.212C37.6243 3.22333 37.9587 3.229 38.242 3.229C39.3187 3.229 40.418 3.18933 41.54 3.11C42.6733 3.03067 43.7897 2.90033 44.889 2.719L44.872 3.96C44.2487 4.028 43.5687 4.096 42.832 4.164C42.0953 4.232 41.336 4.28867 40.554 4.334C39.7833 4.37933 39.0183 4.402 38.259 4.402C37.8623 4.402 37.392 4.385 36.848 4.351C36.304 4.317 35.7657 4.27733 35.233 4.232C34.7117 4.18667 34.2697 4.147 33.907 4.113L33.89 2.855ZM33.805 6.459C34.111 6.50433 34.451 6.54967 34.825 6.595C35.199 6.64033 35.5843 6.67433 35.981 6.697C36.3777 6.71967 36.7573 6.74233 37.12 6.765C37.4827 6.77633 37.8057 6.782 38.089 6.782C38.9163 6.782 39.7153 6.765 40.486 6.731C41.268 6.68567 42.033 6.629 42.781 6.561C43.5403 6.48167 44.2883 6.38533 45.025 6.272L45.008 7.547C44.4413 7.62633 43.8747 7.69433 43.308 7.751C42.7527 7.79633 42.1917 7.836 41.625 7.87C41.0697 7.904 40.4973 7.93233 39.908 7.955C39.33 7.96633 38.718 7.972 38.072 7.972C37.6867 7.972 37.239 7.96067 36.729 7.938C36.2303 7.91533 35.7203 7.887 35.199 7.853C34.689 7.819 34.23 7.77933 33.822 7.734L33.805 6.459ZM55.259 0.576999H56.585V13.718H55.259V0.576999ZM49.275 4.283H50.567V15.656H49.275V4.283ZM61.464 4.266H62.756V15.588H61.464V4.266ZM49.921 12.97H62.025V14.279H49.921V12.97ZM67.788 7.428H77.121V8.499H69.063V15.86H67.788V7.428ZM76.679 7.428H77.971V14.5C77.971 14.84 77.9143 15.1007 77.801 15.282C77.699 15.4633 77.5177 15.5937 77.257 15.673C76.985 15.7637 76.6223 15.8147 76.169 15.826C75.7157 15.8487 75.149 15.86 74.469 15.86C74.435 15.7013 74.3783 15.52 74.299 15.316C74.2197 15.1233 74.1347 14.9533 74.044 14.806C74.384 14.8173 74.707 14.823 75.013 14.823C75.319 14.823 75.591 14.8173 75.829 14.806C76.067 14.806 76.2313 14.806 76.322 14.806C76.458 14.806 76.5487 14.7777 76.594 14.721C76.6507 14.6757 76.679 14.5963 76.679 14.483V7.428ZM68.536 9.808H77.206V10.76H68.536V9.808ZM65.357 1.886H80.317V3.025H65.357V1.886ZM70.083 2.566L71.46 2.974C71.0973 3.49533 70.695 4.028 70.253 4.572C69.811 5.116 69.4087 5.58067 69.046 5.966L68.026 5.575C68.2527 5.303 68.4907 4.99133 68.74 4.64C69.0007 4.28867 69.2443 3.93167 69.471 3.569C69.709 3.20633 69.913 2.872 70.083 2.566ZM74.809 3.654L75.829 2.991C76.3277 3.31967 76.849 3.688 77.393 4.096C77.9483 4.49267 78.4697 4.895 78.957 5.303C79.4443 5.711 79.841 6.07933 80.147 6.408L79.076 7.173C78.7927 6.833 78.413 6.459 77.937 6.051C77.461 5.63167 76.951 5.21233 76.407 4.793C75.863 4.37367 75.3303 3.994 74.809 3.654ZM66.02 5.184C66.7793 5.184 67.635 5.17833 68.587 5.167C69.5503 5.14433 70.576 5.12733 71.664 5.116C72.752 5.09333 73.8683 5.07067 75.013 5.048C76.169 5.02533 77.3137 5.00267 78.447 4.98L78.379 6.034C76.8943 6.07933 75.404 6.12467 73.908 6.17C72.412 6.21533 70.9897 6.255 69.641 6.289C68.2923 6.323 67.1023 6.35133 66.071 6.374L66.02 5.184ZM68.536 12.069H77.155V13.021H68.536V12.069ZM72.14 0.203H73.449V2.43H72.14V0.203ZM84.091 13.14H86.777C86.9583 13.14 87.185 13.1287 87.457 13.106C87.729 13.072 88.018 13.004 88.324 12.902C88.63 12.7887 88.9303 12.63 89.225 12.426C89.531 12.222 89.803 11.9443 90.041 11.593C90.279 11.2417 90.4717 10.8053 90.619 10.284C90.7777 9.75133 90.857 9.111 90.857 8.363C90.857 7.63767 90.7833 6.99167 90.636 6.425C90.5 5.847 90.2677 5.35967 89.939 4.963C89.6217 4.555 89.208 4.249 88.698 4.045C88.188 3.82967 87.559 3.722 86.811 3.722H84.091V13.14ZM82.476 2.362H86.641C88.511 2.362 89.9503 2.838 90.959 3.79C91.9677 4.742 92.472 6.19267 92.472 8.142C92.472 9.162 92.3587 10.0687 92.132 10.862C91.9053 11.644 91.554 12.307 91.078 12.851C90.602 13.3837 89.9957 13.7917 89.259 14.075C88.5223 14.3583 87.6497 14.5 86.641 14.5H82.476V2.362ZM96.3667 9.485H100.481L98.4577 3.824H98.4237L96.3667 9.485ZM97.5737 2.362H99.3587L104.102 14.5H102.317L100.991 10.845H95.8567L94.4967 14.5H92.8477L97.5737 2.362ZM106.064 8.431C106.064 9.043 106.143 9.64933 106.302 10.25C106.461 10.8393 106.71 11.372 107.05 11.848C107.39 12.324 107.826 12.7093 108.359 13.004C108.892 13.2873 109.526 13.429 110.263 13.429C111 13.429 111.634 13.2873 112.167 13.004C112.7 12.7093 113.136 12.324 113.476 11.848C113.816 11.372 114.065 10.8393 114.224 10.25C114.383 9.64933 114.462 9.043 114.462 8.431C114.462 7.819 114.383 7.21833 114.224 6.629C114.065 6.02833 113.816 5.49 113.476 5.014C113.136 4.538 112.7 4.15833 112.167 3.875C111.634 3.58033 111 3.433 110.263 3.433C109.526 3.433 108.892 3.58033 108.359 3.875C107.826 4.15833 107.39 4.538 107.05 5.014C106.71 5.49 106.461 6.02833 106.302 6.629C106.143 7.21833 106.064 7.819 106.064 8.431ZM104.449 8.431C104.449 7.60367 104.568 6.81033 104.806 6.051C105.055 5.28033 105.424 4.60033 105.911 4.011C106.398 3.42167 107.005 2.95133 107.73 2.6C108.455 2.24867 109.3 2.073 110.263 2.073C111.226 2.073 112.071 2.24867 112.796 2.6C113.521 2.95133 114.128 3.42167 114.615 4.011C115.102 4.60033 115.465 5.28033 115.703 6.051C115.952 6.81033 116.077 7.60367 116.077 8.431C116.077 9.25833 115.952 10.0573 115.703 10.828C115.465 11.5873 115.102 12.2617 114.615 12.851C114.128 13.4403 113.521 13.9107 112.796 14.262C112.071 14.602 111.226 14.772 110.263 14.772C109.3 14.772 108.455 14.602 107.73 14.262C107.005 13.9107 106.398 13.4403 105.911 12.851C105.424 12.2617 105.055 11.5873 104.806 10.828C104.568 10.0573 104.449 9.25833 104.449 8.431Z" fill="black"/>
</svg>
