<svg width="13" height="8" viewBox="0 0 13 8" fill="none" xmlns="http://www.w3.org/2000/svg">
<path d="M0.927734 1.43262L6.21875 6.84668C6.34635 6.9834 6.5013 7.05176 6.68359 7.05176C6.77018 7.05176 6.85221 7.03353 6.92969 6.99707C7.01172 6.96061 7.08236 6.91048 7.1416 6.84668L12.4326 1.43262C12.5557 1.31413 12.6172 1.16602 12.6172 0.988281C12.6172 0.869792 12.5898 0.762695 12.5352 0.666992C12.4805 0.575846 12.4053 0.50293 12.3096 0.448242C12.2184 0.393555 12.1136 0.366211 11.9951 0.366211C11.8128 0.366211 11.6647 0.425456 11.5508 0.543945L6.31445 5.88965H7.0459L1.80957 0.543945C1.7002 0.425456 1.55208 0.366211 1.36523 0.366211C1.24674 0.366211 1.13965 0.393555 1.04395 0.448242C0.952799 0.50293 0.879883 0.575846 0.825195 0.666992C0.770508 0.762695 0.743164 0.869792 0.743164 0.988281C0.743164 1.07487 0.759115 1.1569 0.791016 1.23438C0.822917 1.31185 0.86849 1.37793 0.927734 1.43262Z" fill="black"/>
</svg>
