<svg width="71" height="28" viewBox="0 0 71 28" fill="none" xmlns="http://www.w3.org/2000/svg">
<path d="M32.3626 21C30.232 21 28.6101 20.3719 27.4971 19.1158C26.3841 17.8438 25.8276 16.1346 25.8276 13.9881C25.8276 12.573 26.0661 11.3487 26.5431 10.3152C27.036 9.26576 27.7595 8.45486 28.7135 7.88245C29.6834 7.29415 30.8998 7 32.3626 7C34.4932 7 36.107 7.636 37.2041 8.90801C38.3012 10.1641 38.8498 11.8575 38.8498 13.9881C38.8498 15.3714 38.6033 16.5957 38.1104 17.661C37.6334 18.7104 36.91 19.5292 35.9401 20.1175C34.9861 20.7058 33.7936 21 32.3626 21ZM32.3387 19.5213C33.4517 19.5213 34.3739 19.2907 35.1053 18.8296C35.8526 18.3685 36.4091 17.7246 36.7748 16.8978C37.1564 16.0551 37.3472 15.0852 37.3472 13.9881C37.3472 12.891 37.1644 11.929 36.7987 11.1022C36.4489 10.2595 35.9003 9.60761 35.153 9.14651C34.4057 8.66951 33.4676 8.431 32.3387 8.431C30.701 8.431 29.4528 8.92391 28.5942 9.90971C27.7515 10.8955 27.3302 12.255 27.3302 13.9881C27.3302 15.0693 27.513 16.0312 27.8787 16.8739C28.2444 17.7007 28.793 18.3526 29.5244 18.8296C30.2717 19.2907 31.2098 19.5213 32.3387 19.5213Z" fill="black"/>
<path d="M12.8765 20.6664L17.5988 7.23877H20.1269L24.9208 20.6664H23.299L18.9105 7.90657L14.4983 20.6664H12.8765ZM15.4761 16.4688L15.5954 15.1808H22.1541L22.2972 16.4688H15.4761Z" fill="black"/>
<path d="M1.52641 19.3546C2.21011 19.3546 2.72686 19.3546 3.07666 19.3546C3.44236 19.3546 3.71266 19.3546 3.88756 19.3546C4.80977 19.3546 5.64452 19.2831 6.39182 19.14C7.15503 18.9969 7.79898 18.7266 8.32368 18.3291C8.86428 17.9316 9.27768 17.383 9.56388 16.6834C9.85009 15.9679 9.99319 15.0536 9.99319 13.9406C9.99319 12.7163 9.73879 11.7146 9.22998 10.9355C8.73708 10.1405 8.02953 9.55223 7.10733 9.17063C6.20102 8.78903 5.12777 8.59822 3.88756 8.59822H1.52641V19.3546ZM11.615 13.9406C11.615 15.7056 11.2811 17.0809 10.6133 18.0667C9.94549 19.0366 9.00738 19.7124 7.79898 20.094C6.59057 20.4756 5.17547 20.6664 3.55366 20.6664C3.29926 20.6664 2.89381 20.6664 2.33731 20.6664C1.79671 20.6664 1.0176 20.6664 0 20.6664V7.23877C1.0812 7.23877 1.88416 7.23877 2.40886 7.23877C2.94946 7.23877 3.33106 7.23877 3.55366 7.23877C5.17547 7.23877 6.59057 7.49317 7.79898 8.00197C9.00738 8.49487 9.94549 9.23423 10.6133 10.22C11.2811 11.2058 11.615 12.446 11.615 13.9406Z" fill="black"/>
<path fill-rule="evenodd" clip-rule="evenodd" d="M56.8498 5.50917C62.2581 5.50917 67.1815 3.4187 70.8496 0.000384411C67.4313 3.66845 65.3408 8.59193 65.3408 14.0002C65.3408 19.4084 67.4313 24.3319 70.8496 27.9999C67.1815 24.5816 62.2581 22.4912 56.8498 22.4912C51.4416 22.4912 46.5179 24.5811 42.8496 28.0003C46.2688 24.3321 48.3588 19.4084 48.3588 14.0002C48.3588 8.59193 46.2688 3.66824 42.8496 0C46.5179 3.41926 51.4416 5.50917 56.8498 5.50917ZM56.8498 9.03017C61.3298 9.03017 65.2118 5.42589 68.3296 2.52033C65.424 5.63819 61.8198 9.52017 61.8198 14.0001C61.8198 18.4802 65.424 22.3621 68.3296 25.4799C65.2118 22.5744 61.3298 18.9702 56.8498 18.9702C52.3698 18.9702 48.4876 22.5739 45.3696 25.4803C48.276 22.3623 51.8798 18.4802 51.8798 14.0001C51.8798 9.52017 48.276 5.638 45.3696 2.52C48.4876 5.42637 52.3698 9.03017 56.8498 9.03017Z" fill="white"/>
<path fill-rule="evenodd" clip-rule="evenodd" d="M56.8498 5.50917C62.2581 5.50917 67.1815 3.4187 70.8496 0.000384411C67.4313 3.66845 65.3408 8.59193 65.3408 14.0002C65.3408 19.4084 67.4313 24.3319 70.8496 27.9999C67.1815 24.5816 62.2581 22.4912 56.8498 22.4912C51.4416 22.4912 46.5179 24.5811 42.8496 28.0003C46.2688 24.3321 48.3588 19.4084 48.3588 14.0002C48.3588 8.59193 46.2688 3.66824 42.8496 0C46.5179 3.41926 51.4416 5.50917 56.8498 5.50917ZM56.8498 9.03017C61.3298 9.03017 65.2118 5.42589 68.3296 2.52033C65.424 5.63819 61.8198 9.52017 61.8198 14.0001C61.8198 18.4802 65.424 22.3621 68.3296 25.4799C65.2118 22.5744 61.3298 18.9702 56.8498 18.9702C52.3698 18.9702 48.4876 22.5739 45.3696 25.4803C48.276 22.3623 51.8798 18.4802 51.8798 14.0001C51.8798 9.52017 48.276 5.638 45.3696 2.52C48.4876 5.42637 52.3698 9.03017 56.8498 9.03017Z" fill="url(#paint0_linear_219_558)"/>
<defs>
<linearGradient id="paint0_linear_219_558" x1="42.8496" y1="0" x2="70.7808" y2="27.9324" gradientUnits="userSpaceOnUse">
<stop/>
<stop offset="1" stop-color="#8D8DA6"/>
</linearGradient>
</defs>
</svg>
