<svg width="141" height="28" viewBox="0 0 141 28" fill="none" xmlns="http://www.w3.org/2000/svg">
<path d="M2.076 14.036H4.308C4.956 14.044 5.428 13.912 5.724 13.64C6.028 13.368 6.18 12.976 6.18 12.464C6.18 11.952 6.028 11.564 5.724 11.3C5.428 11.028 4.956 10.892 4.308 10.892H2.076V14.036ZM0.936 9.932H4.692C5.556 9.932 6.208 10.156 6.648 10.604C7.096 11.044 7.32 11.664 7.32 12.464C7.32 13.264 7.096 13.888 6.648 14.336C6.208 14.784 5.556 15.004 4.692 14.996H2.076V18.5H0.936V9.932ZM8.93325 15.404C8.93325 15.78 8.98125 16.116 9.07725 16.412C9.18125 16.7 9.32125 16.944 9.49725 17.144C9.67325 17.336 9.87725 17.484 10.1092 17.588C10.3492 17.692 10.6012 17.744 10.8652 17.744C11.1293 17.744 11.3773 17.692 11.6092 17.588C11.8492 17.484 12.0573 17.336 12.2333 17.144C12.4093 16.944 12.5453 16.7 12.6413 16.412C12.7453 16.116 12.7973 15.78 12.7973 15.404C12.7973 15.028 12.7453 14.696 12.6413 14.408C12.5453 14.112 12.4093 13.864 12.2333 13.664C12.0573 13.464 11.8492 13.312 11.6092 13.208C11.3773 13.104 11.1293 13.052 10.8652 13.052C10.6012 13.052 10.3492 13.104 10.1092 13.208C9.87725 13.312 9.67325 13.464 9.49725 13.664C9.32125 13.864 9.18125 14.112 9.07725 14.408C8.98125 14.696 8.93325 15.028 8.93325 15.404ZM7.85325 15.404C7.85325 14.948 7.91725 14.524 8.04525 14.132C8.17325 13.732 8.36525 13.388 8.62125 13.1C8.87725 12.804 9.19325 12.572 9.56925 12.404C9.94525 12.236 10.3772 12.152 10.8652 12.152C11.3612 12.152 11.7932 12.236 12.1612 12.404C12.5373 12.572 12.8533 12.804 13.1093 13.1C13.3653 13.388 13.5573 13.732 13.6853 14.132C13.8133 14.524 13.8773 14.948 13.8773 15.404C13.8773 15.86 13.8133 16.284 13.6853 16.676C13.5573 17.068 13.3653 17.412 13.1093 17.708C12.8533 17.996 12.5373 18.224 12.1612 18.392C11.7932 18.552 11.3612 18.632 10.8652 18.632C10.3772 18.632 9.94525 18.552 9.56925 18.392C9.19325 18.224 8.87725 17.996 8.62125 17.708C8.36525 17.412 8.17325 17.068 8.04525 16.676C7.91725 16.284 7.85325 15.86 7.85325 15.404ZM20.8639 18.5H19.7839L18.5239 13.568H18.4999L17.2519 18.5H16.1479L14.1559 12.296H15.2839L16.6879 17.372H16.7119L17.9599 12.296H19.0759L20.3719 17.372H20.3959L21.7879 12.296H22.8439L20.8639 18.5ZM28.0016 14.804C27.9856 14.564 27.9296 14.336 27.8336 14.12C27.7456 13.904 27.6216 13.72 27.4616 13.568C27.3096 13.408 27.1256 13.284 26.9096 13.196C26.7016 13.1 26.4696 13.052 26.2136 13.052C25.9496 13.052 25.7096 13.1 25.4936 13.196C25.2856 13.284 25.1056 13.408 24.9536 13.568C24.8016 13.728 24.6816 13.916 24.5936 14.132C24.5056 14.34 24.4536 14.564 24.4376 14.804H28.0016ZM28.9856 16.532C28.8496 17.228 28.5496 17.752 28.0856 18.104C27.6216 18.456 27.0376 18.632 26.3336 18.632C25.8376 18.632 25.4056 18.552 25.0376 18.392C24.6776 18.232 24.3736 18.008 24.1256 17.72C23.8776 17.432 23.6896 17.088 23.5616 16.688C23.4416 16.288 23.3736 15.852 23.3576 15.38C23.3576 14.908 23.4296 14.476 23.5736 14.084C23.7176 13.692 23.9176 13.352 24.1736 13.064C24.4376 12.776 24.7456 12.552 25.0976 12.392C25.4576 12.232 25.8496 12.152 26.2736 12.152C26.8256 12.152 27.2816 12.268 27.6416 12.5C28.0096 12.724 28.3016 13.012 28.5176 13.364C28.7416 13.716 28.8936 14.1 28.9736 14.516C29.0616 14.932 29.0976 15.328 29.0816 15.704H24.4376C24.4296 15.976 24.4616 16.236 24.5336 16.484C24.6056 16.724 24.7216 16.94 24.8816 17.132C25.0416 17.316 25.2456 17.464 25.4936 17.576C25.7416 17.688 26.0336 17.744 26.3696 17.744C26.8016 17.744 27.1536 17.644 27.4256 17.444C27.7056 17.244 27.8896 16.94 27.9776 16.532H28.9856ZM30.1029 12.296H31.0629V13.604H31.0869C31.3349 13.1 31.6389 12.728 31.9989 12.488C32.3589 12.248 32.8149 12.136 33.3669 12.152V13.232C32.9589 13.232 32.6109 13.288 32.3229 13.4C32.0349 13.512 31.8029 13.676 31.6269 13.892C31.4509 14.108 31.3229 14.372 31.2429 14.684C31.1629 14.988 31.1229 15.34 31.1229 15.74V18.5H30.1029V12.296ZM38.2321 14.804C38.2161 14.564 38.1601 14.336 38.0641 14.12C37.9761 13.904 37.8521 13.72 37.6921 13.568C37.5401 13.408 37.3561 13.284 37.1401 13.196C36.9321 13.1 36.7001 13.052 36.4441 13.052C36.1801 13.052 35.9401 13.1 35.7241 13.196C35.5161 13.284 35.3361 13.408 35.1841 13.568C35.0321 13.728 34.9121 13.916 34.8241 14.132C34.7361 14.34 34.6841 14.564 34.6681 14.804H38.2321ZM39.2161 16.532C39.0801 17.228 38.7801 17.752 38.3161 18.104C37.8521 18.456 37.2681 18.632 36.5641 18.632C36.0681 18.632 35.6361 18.552 35.2681 18.392C34.9081 18.232 34.6041 18.008 34.3561 17.72C34.1081 17.432 33.9201 17.088 33.7921 16.688C33.6721 16.288 33.6041 15.852 33.5881 15.38C33.5881 14.908 33.6601 14.476 33.8041 14.084C33.9481 13.692 34.1481 13.352 34.4041 13.064C34.6681 12.776 34.9761 12.552 35.3281 12.392C35.6881 12.232 36.0801 12.152 36.5041 12.152C37.0561 12.152 37.5121 12.268 37.8721 12.5C38.2401 12.724 38.5321 13.012 38.7481 13.364C38.9721 13.716 39.1241 14.1 39.2041 14.516C39.2921 14.932 39.3281 15.328 39.3121 15.704H34.6681C34.6601 15.976 34.6921 16.236 34.7641 16.484C34.8361 16.724 34.9521 16.94 35.1121 17.132C35.2721 17.316 35.4761 17.464 35.7241 17.576C35.9721 17.688 36.2641 17.744 36.6001 17.744C37.0321 17.744 37.3841 17.644 37.6561 17.444C37.9361 17.244 38.1201 16.94 38.2081 16.532H39.2161ZM40.9934 15.452C40.9934 15.74 41.0294 16.024 41.1014 16.304C41.1814 16.576 41.2974 16.82 41.4494 17.036C41.6094 17.252 41.8094 17.424 42.0494 17.552C42.2974 17.68 42.5854 17.744 42.9134 17.744C43.2574 17.744 43.5494 17.676 43.7894 17.54C44.0294 17.404 44.2254 17.228 44.3774 17.012C44.5294 16.788 44.6374 16.536 44.7014 16.256C44.7734 15.976 44.8094 15.692 44.8094 15.404C44.8094 15.1 44.7734 14.808 44.7014 14.528C44.6294 14.24 44.5134 13.988 44.3534 13.772C44.2014 13.556 44.0014 13.384 43.7534 13.256C43.5054 13.12 43.2054 13.052 42.8534 13.052C42.5094 13.052 42.2174 13.12 41.9774 13.256C41.7374 13.392 41.5454 13.572 41.4014 13.796C41.2574 14.02 41.1534 14.276 41.0894 14.564C41.0254 14.852 40.9934 15.148 40.9934 15.452ZM45.7934 18.5H44.7734V17.66H44.7494C44.5814 18.004 44.3174 18.252 43.9574 18.404C43.5974 18.556 43.2014 18.632 42.7694 18.632C42.2894 18.632 41.8694 18.544 41.5094 18.368C41.1574 18.192 40.8614 17.956 40.6214 17.66C40.3894 17.364 40.2134 17.02 40.0934 16.628C39.9734 16.236 39.9134 15.82 39.9134 15.38C39.9134 14.94 39.9694 14.524 40.0814 14.132C40.2014 13.74 40.3774 13.4 40.6094 13.112C40.8494 12.816 41.1454 12.584 41.4974 12.416C41.8574 12.24 42.2734 12.152 42.7454 12.152C42.9054 12.152 43.0774 12.168 43.2614 12.2C43.4454 12.232 43.6294 12.288 43.8134 12.368C43.9974 12.44 44.1694 12.54 44.3294 12.668C44.4974 12.788 44.6374 12.94 44.7494 13.124H44.7734V9.932H45.7934V18.5ZM50.4985 9.932H51.5185V13.136H51.5425C51.7105 12.792 51.9745 12.544 52.3345 12.392C52.6945 12.232 53.0905 12.152 53.5225 12.152C54.0025 12.152 54.4185 12.24 54.7705 12.416C55.1305 12.592 55.4265 12.832 55.6585 13.136C55.8985 13.432 56.0785 13.776 56.1985 14.168C56.3185 14.56 56.3785 14.976 56.3785 15.416C56.3785 15.856 56.3185 16.272 56.1985 16.664C56.0865 17.056 55.9105 17.4 55.6705 17.696C55.4385 17.984 55.1425 18.212 54.7825 18.38C54.4305 18.548 54.0185 18.632 53.5465 18.632C53.3945 18.632 53.2225 18.616 53.0305 18.584C52.8465 18.552 52.6625 18.5 52.4785 18.428C52.2945 18.356 52.1185 18.26 51.9505 18.14C51.7905 18.012 51.6545 17.856 51.5425 17.672H51.5185V18.5H50.4985V9.932ZM55.2985 15.344C55.2985 15.056 55.2585 14.776 55.1785 14.504C55.1065 14.224 54.9905 13.976 54.8305 13.76C54.6785 13.544 54.4785 13.372 54.2305 13.244C53.9905 13.116 53.7065 13.052 53.3785 13.052C53.0345 13.052 52.7425 13.12 52.5025 13.256C52.2625 13.392 52.0665 13.572 51.9145 13.796C51.7625 14.012 51.6505 14.26 51.5785 14.54C51.5145 14.82 51.4825 15.104 51.4825 15.392C51.4825 15.696 51.5185 15.992 51.5905 16.28C51.6625 16.56 51.7745 16.808 51.9265 17.024C52.0865 17.24 52.2905 17.416 52.5385 17.552C52.7865 17.68 53.0865 17.744 53.4385 17.744C53.7905 17.744 54.0825 17.676 54.3145 17.54C54.5545 17.404 54.7465 17.224 54.8905 17C55.0345 16.776 55.1385 16.52 55.2025 16.232C55.2665 15.944 55.2985 15.648 55.2985 15.344ZM59.7718 19.328C59.6518 19.632 59.5318 19.888 59.4118 20.096C59.2998 20.304 59.1718 20.472 59.0278 20.6C58.8918 20.736 58.7358 20.832 58.5598 20.888C58.3918 20.952 58.1958 20.984 57.9718 20.984C57.8518 20.984 57.7318 20.976 57.6118 20.96C57.4918 20.944 57.3758 20.916 57.2638 20.876V19.94C57.3518 19.98 57.4518 20.012 57.5638 20.036C57.6838 20.068 57.7838 20.084 57.8638 20.084C58.0718 20.084 58.2438 20.032 58.3798 19.928C58.5238 19.832 58.6318 19.692 58.7038 19.508L59.1238 18.464L56.6638 12.296H57.8158L59.6278 17.372H59.6518L61.3918 12.296H62.4718L59.7718 19.328Z" fill="black"/>
<path d="M102.363 21.0002C100.232 21.0002 98.6101 20.3721 97.4971 19.116C96.3841 17.844 95.8276 16.1348 95.8276 13.9883C95.8276 12.5732 96.0661 11.3489 96.5431 10.3154C97.036 9.26595 97.7595 8.45505 98.7135 7.88265C99.6834 7.29435 100.9 7.00019 102.363 7.00019C104.493 7.00019 106.107 7.6362 107.204 8.9082C108.301 10.1643 108.85 11.8577 108.85 13.9883C108.85 15.3716 108.603 16.5959 108.11 17.6612C107.633 18.7106 106.91 19.5294 105.94 20.1177C104.986 20.706 103.794 21.0002 102.363 21.0002ZM102.339 19.5215C103.452 19.5215 104.374 19.2909 105.105 18.8298C105.853 18.3687 106.409 17.7248 106.775 16.898C107.156 16.0553 107.347 15.0854 107.347 13.9883C107.347 12.8912 107.164 11.9292 106.799 11.1024C106.449 10.2597 105.9 9.6078 105.153 9.1467C104.406 8.6697 103.468 8.4312 102.339 8.4312C100.701 8.4312 99.4528 8.9241 98.5942 9.9099C97.7515 10.8957 97.3302 12.2552 97.3302 13.9883C97.3302 15.0695 97.513 16.0314 97.8787 16.8741C98.2444 17.7009 98.793 18.3528 99.5244 18.8298C100.272 19.2909 101.21 19.5215 102.339 19.5215Z" fill="black"/>
<path d="M82.8767 20.6666L87.599 7.239H90.1271L94.921 20.6666H93.2992L88.9108 7.9068L84.4985 20.6666H82.8767ZM85.4764 16.469L85.5956 15.1811H92.1544L92.2975 16.469H85.4764Z" fill="black"/>
<path d="M71.5265 19.3548C72.2102 19.3548 72.7269 19.3548 73.0767 19.3548C73.4424 19.3548 73.7127 19.3548 73.8876 19.3548C74.8098 19.3548 75.6446 19.2833 76.3919 19.1402C77.1551 18.9971 77.7991 18.7268 78.3238 18.3293C78.8644 17.9318 79.2778 17.3832 79.564 16.6836C79.8502 15.9681 79.9933 15.0539 79.9933 13.9409C79.9933 12.7166 79.7389 11.7149 79.2301 10.9358C78.7372 10.1408 78.0296 9.55246 77.1074 9.17086C76.2011 8.78925 75.1278 8.59845 73.8876 8.59845H71.5265V19.3548ZM81.6151 13.9409C81.6151 15.7058 81.2812 17.0811 80.6134 18.0669C79.9456 19.0368 79.0075 19.7126 77.7991 20.0942C76.5906 20.4758 75.1755 20.6666 73.5537 20.6666C73.2993 20.6666 72.8939 20.6666 72.3374 20.6666C71.7968 20.6666 71.0177 20.6666 70.0001 20.6666V7.239C71.0813 7.239 71.8842 7.239 72.4089 7.239C72.9495 7.239 73.3311 7.239 73.5537 7.239C75.1755 7.239 76.5906 7.4934 77.7991 8.0022C79.0075 8.4951 79.9456 9.23446 80.6134 10.2203C81.2812 11.2061 81.6151 12.4463 81.6151 13.9409Z" fill="black"/>
<path fill-rule="evenodd" clip-rule="evenodd" d="M126.85 5.50901C132.258 5.50901 137.181 3.41854 140.85 0.000224194C137.431 3.66829 135.341 8.59177 135.341 14C135.341 19.4082 137.431 24.3317 140.85 27.9998C137.181 24.5815 132.258 22.491 126.85 22.491C121.442 22.491 116.518 24.5809 112.85 28.0002C116.269 24.3319 118.359 19.4082 118.359 14C118.359 8.59177 116.269 3.66808 112.85 -0.000160217C116.518 3.4191 121.442 5.50901 126.85 5.50901ZM126.85 9.03001C131.33 9.03001 135.212 5.42573 138.33 2.52017C135.424 5.63803 131.82 9.52001 131.82 14C131.82 18.48 135.424 22.3619 138.33 25.4798C135.212 22.5742 131.33 18.97 126.85 18.97C122.37 18.97 118.488 22.5737 115.37 25.4801C118.276 22.3621 121.88 18.48 121.88 14C121.88 9.52001 118.276 5.63784 115.37 2.51984C118.488 5.42621 122.37 9.03001 126.85 9.03001Z" fill="white"/>
<path fill-rule="evenodd" clip-rule="evenodd" d="M126.85 5.50901C132.258 5.50901 137.181 3.41854 140.85 0.000224194C137.431 3.66829 135.341 8.59177 135.341 14C135.341 19.4082 137.431 24.3317 140.85 27.9998C137.181 24.5815 132.258 22.491 126.85 22.491C121.442 22.491 116.518 24.5809 112.85 28.0002C116.269 24.3319 118.359 19.4082 118.359 14C118.359 8.59177 116.269 3.66808 112.85 -0.000160217C116.518 3.4191 121.442 5.50901 126.85 5.50901ZM126.85 9.03001C131.33 9.03001 135.212 5.42573 138.33 2.52017C135.424 5.63803 131.82 9.52001 131.82 14C131.82 18.48 135.424 22.3619 138.33 25.4798C135.212 22.5742 131.33 18.97 126.85 18.97C122.37 18.97 118.488 22.5737 115.37 25.4801C118.276 22.3621 121.88 18.48 121.88 14C121.88 9.52001 118.276 5.63784 115.37 2.51984C118.488 5.42621 122.37 9.03001 126.85 9.03001Z" fill="url(#paint0_linear_1031_2038)"/>
<defs>
<linearGradient id="paint0_linear_1031_2038" x1="112.85" y1="-0.000160217" x2="140.781" y2="27.9322" gradientUnits="userSpaceOnUse">
<stop/>
<stop offset="1" stop-color="#8D8DA6"/>
</linearGradient>
</defs>
</svg>
