<svg width="15" height="14" viewBox="0 0 15 14" fill="none" xmlns="http://www.w3.org/2000/svg">
<path d="M0.805664 5.6792C0.805664 4.92236 0.947266 4.21436 1.23047 3.55518C1.51367 2.896 1.9043 2.31738 2.40234 1.81934C2.90527 1.31641 3.48633 0.92334 4.14551 0.640137C4.80469 0.352051 5.51025 0.208008 6.26221 0.208008C7.01904 0.208008 7.72705 0.352051 8.38623 0.640137C9.04541 0.92334 9.62646 1.31641 10.1294 1.81934C10.6323 2.31738 11.0254 2.896 11.3086 3.55518C11.5918 4.21436 11.7334 4.92236 11.7334 5.6792C11.7334 6.30908 11.6309 6.90967 11.4258 7.48096C11.2207 8.04736 10.9375 8.56006 10.5762 9.01904L14.0479 12.5054C14.1162 12.5786 14.1675 12.6592 14.2017 12.7471C14.2407 12.8398 14.2603 12.9351 14.2603 13.0327C14.2603 13.1792 14.2285 13.3086 14.165 13.4209C14.1016 13.5381 14.0137 13.6284 13.9014 13.6919C13.7891 13.7603 13.6597 13.7944 13.5132 13.7944C13.4155 13.7944 13.3179 13.7749 13.2202 13.7358C13.1274 13.7017 13.0444 13.6504 12.9712 13.582L9.48486 10.0811C9.03076 10.4131 8.53271 10.6743 7.99072 10.8647C7.44873 11.0503 6.87256 11.1431 6.26221 11.1431C5.51025 11.1431 4.80469 11.0015 4.14551 10.7183C3.48633 10.4351 2.90527 10.042 2.40234 9.53906C1.9043 9.03613 1.51367 8.45508 1.23047 7.7959C0.947266 7.13672 0.805664 6.43115 0.805664 5.6792ZM1.86768 5.6792C1.86768 6.28467 1.98242 6.85352 2.21191 7.38574C2.44141 7.91309 2.75635 8.37939 3.15674 8.78467C3.56201 9.18506 4.02832 9.5 4.55566 9.72949C5.08789 9.9541 5.65674 10.0664 6.26221 10.0664C6.87256 10.0664 7.44141 9.9541 7.96875 9.72949C8.50098 9.5 8.96729 9.18506 9.36768 8.78467C9.77295 8.37939 10.0879 7.91309 10.3125 7.38574C10.542 6.85352 10.6567 6.28467 10.6567 5.6792C10.6567 5.06885 10.542 4.5 10.3125 3.97266C10.0879 3.44043 9.77295 2.97412 9.36768 2.57373C8.96729 2.16846 8.50098 1.85352 7.96875 1.62891C7.44141 1.39941 6.87256 1.28467 6.26221 1.28467C5.65674 1.28467 5.08789 1.39941 4.55566 1.62891C4.02832 1.85352 3.56201 2.16846 3.15674 2.57373C2.75635 2.97412 2.44141 3.44043 2.21191 3.97266C1.98242 4.5 1.86768 5.06885 1.86768 5.6792Z" fill="black"/>
</svg>
