<svg width="12" height="12" viewBox="0 0 12 12" fill="none" xmlns="http://www.w3.org/2000/svg">
<path d="M1.625 11.8945C0.617839 11.8945 0.114258 11.5618 0.114258 10.8965C0.114258 10.4727 0.241862 10.0238 0.49707 9.5498C0.752279 9.07129 1.1237 8.6224 1.61133 8.20312C2.09896 7.78385 2.68913 7.44206 3.38184 7.17773C4.07454 6.90885 4.8584 6.77441 5.7334 6.77441C6.59928 6.77441 7.37858 6.90885 8.07129 7.17773C8.764 7.44206 9.35417 7.78385 9.8418 8.20312C10.3294 8.6224 10.7008 9.07129 10.9561 9.5498C11.2158 10.0238 11.3457 10.4727 11.3457 10.8965C11.3457 11.5618 10.8421 11.8945 9.83496 11.8945H1.625ZM1.3584 11.0059H10.1016C10.2109 11.0059 10.2884 10.9899 10.334 10.958C10.3796 10.9261 10.4023 10.8691 10.4023 10.7871C10.4023 10.5091 10.2975 10.1924 10.0879 9.83691C9.88281 9.47689 9.58203 9.13281 9.18555 8.80469C8.78906 8.47656 8.29915 8.2054 7.71582 7.99121C7.13704 7.77246 6.47624 7.66309 5.7334 7.66309C4.98145 7.66309 4.31608 7.77246 3.7373 7.99121C3.15853 8.2054 2.66862 8.47656 2.26758 8.80469C1.87109 9.13281 1.57031 9.47689 1.36523 9.83691C1.16471 10.1924 1.06445 10.5091 1.06445 10.7871C1.06445 10.8691 1.08496 10.9261 1.12598 10.958C1.17155 10.9899 1.24902 11.0059 1.3584 11.0059ZM5.7334 5.94043C5.22754 5.94043 4.76497 5.80599 4.3457 5.53711C3.92643 5.26367 3.59375 4.90137 3.34766 4.4502C3.10156 3.99447 2.97852 3.49089 2.97852 2.93945C2.97396 2.39714 3.09473 1.90495 3.34082 1.46289C3.59147 1.01628 3.92643 0.660807 4.3457 0.396484C4.76497 0.127604 5.22754 -0.00683594 5.7334 -0.00683594C6.24382 -0.00683594 6.70866 0.125326 7.12793 0.389648C7.5472 0.653971 7.87988 1.00716 8.12598 1.44922C8.37207 1.89128 8.49512 2.38346 8.49512 2.92578C8.49512 3.47721 8.36979 3.98307 8.11914 4.44336C7.87305 4.89909 7.54036 5.26367 7.12109 5.53711C6.70182 5.80599 6.23926 5.94043 5.7334 5.94043ZM5.7334 5.05176C6.06608 5.05176 6.36914 4.95833 6.64258 4.77148C6.91602 4.58008 7.13477 4.32487 7.29883 4.00586C7.46745 3.68229 7.55176 3.32227 7.55176 2.92578C7.55176 2.54297 7.46973 2.19661 7.30566 1.88672C7.1416 1.57682 6.92285 1.33301 6.64941 1.15527C6.37598 0.977539 6.07064 0.888672 5.7334 0.888672C5.40072 0.888672 5.09538 0.979818 4.81738 1.16211C4.54395 1.33984 4.3252 1.58594 4.16113 1.90039C3.99707 2.21029 3.91732 2.55664 3.92188 2.93945C3.92188 3.33594 4.00391 3.69368 4.16797 4.0127C4.33203 4.33171 4.55078 4.58464 4.82422 4.77148C5.10221 4.95833 5.40527 5.05176 5.7334 5.05176Z" fill="black"/>
</svg>
