<svg width="12" height="8" viewBox="0 0 12 8" fill="none" xmlns="http://www.w3.org/2000/svg">
<path d="M0.247559 6.27637L5.53857 0.862305C5.66618 0.725586 5.82113 0.657227 6.00342 0.657227C6.09001 0.657227 6.17204 0.675456 6.24951 0.711914C6.33154 0.748372 6.40218 0.798503 6.46143 0.862305L11.7524 6.27637C11.8755 6.39486 11.937 6.54297 11.937 6.7207C11.937 6.83919 11.9097 6.94629 11.855 7.04199C11.8003 7.13314 11.7251 7.20605 11.6294 7.26074C11.5382 7.31543 11.4334 7.34277 11.3149 7.34277C11.1326 7.34277 10.9845 7.28353 10.8706 7.16504L5.63428 1.81934H6.36572L1.12939 7.16504C1.02002 7.28353 0.871908 7.34277 0.685059 7.34277C0.566569 7.34277 0.459473 7.31543 0.36377 7.26074C0.272624 7.20605 0.199707 7.13314 0.14502 7.04199C0.090332 6.94629 0.0629883 6.83919 0.0629883 6.7207C0.0629883 6.63411 0.0789388 6.55208 0.11084 6.47461C0.142741 6.39714 0.188314 6.33105 0.247559 6.27637Z" fill="white" fill-opacity="0.5"/>
</svg>
