<svg width="12" height="11" viewBox="0 0 12 11" fill="none" xmlns="http://www.w3.org/2000/svg">
<path d="M0.0703125 5.35938C0.0703125 5.53646 0.143229 5.69271 0.289062 5.82812L4.32031 9.85156C4.45573 9.98177 4.60938 10.0469 4.78125 10.0469C4.95312 10.0469 5.09896 9.98958 5.21875 9.875C5.33333 9.76042 5.39062 9.61458 5.39062 9.4375C5.39062 9.35417 5.3776 9.27344 5.35156 9.19531C5.32031 9.11719 5.27604 9.05208 5.21875 9L4.14062 7.88281L1.5 5.50781L1.35938 5.84375L3.4375 5.99219H10.8125C11 5.99219 11.151 5.93229 11.2656 5.8125C11.3802 5.69271 11.4375 5.54167 11.4375 5.35938C11.4375 5.17708 11.3802 5.02604 11.2656 4.90625C11.151 4.78646 11 4.72656 10.8125 4.72656H3.4375L1.35938 4.875L1.5 5.21875L4.14062 2.83594L5.21875 1.71875C5.27604 1.66667 5.32031 1.60156 5.35156 1.52344C5.3776 1.44531 5.39062 1.36458 5.39062 1.28125C5.39062 1.10417 5.33333 0.958333 5.21875 0.84375C5.09896 0.729167 4.95312 0.671875 4.78125 0.671875C4.60938 0.671875 4.45573 0.736979 4.32031 0.867188L0.289062 4.89062C0.143229 5.02604 0.0703125 5.18229 0.0703125 5.35938Z" fill="white"/>
</svg>
