<svg width="12" height="11" viewBox="0 0 12 11" fill="none" xmlns="http://www.w3.org/2000/svg">
<path d="M0.320313 5.64062C0.320313 5.46354 0.39323 5.30729 0.539063 5.17187L4.57031 1.14844C4.70573 1.01823 4.85938 0.953124 5.03125 0.953124C5.20313 0.953124 5.34896 1.01042 5.46875 1.125C5.58333 1.23958 5.64063 1.38542 5.64063 1.5625C5.64063 1.64583 5.62761 1.72656 5.60156 1.80469C5.57031 1.88281 5.52604 1.94792 5.46875 2L4.39063 3.11719L1.75 5.49219L1.60938 5.15625L3.6875 5.00781L11.0625 5.00781C11.25 5.00781 11.401 5.06771 11.5156 5.1875C11.6302 5.30729 11.6875 5.45833 11.6875 5.64062C11.6875 5.82292 11.6302 5.97396 11.5156 6.09375C11.401 6.21354 11.25 6.27344 11.0625 6.27344L3.6875 6.27344L1.60938 6.125L1.75 5.78125L4.39063 8.16406L5.46875 9.28125C5.52604 9.33333 5.57031 9.39844 5.60156 9.47656C5.6276 9.55469 5.64063 9.63542 5.64063 9.71875C5.64063 9.89583 5.58333 10.0417 5.46875 10.1562C5.34896 10.2708 5.20313 10.3281 5.03125 10.3281C4.85938 10.3281 4.70573 10.263 4.57031 10.1328L0.539063 6.10937C0.39323 5.97396 0.320313 5.81771 0.320313 5.64062Z" fill="black" fill-opacity="0.7"/>
</svg>
