<svg width="32" height="32" viewBox="0 0 32 32" fill="none" xmlns="http://www.w3.org/2000/svg">
<path d="M0 5C0 2.23858 2.23858 0 5 0H27C29.7614 0 32 2.23858 32 5V27C32 29.7614 29.7614 32 27 32H5C2.23858 32 0 29.7614 0 27V5Z" fill="#DEDEE5"/>
<path d="M10.4409 21.2783C10.3726 21.2148 10.3286 21.1416 10.3091 21.0586C10.2896 20.9756 10.2896 20.8926 10.3091 20.8096C10.3335 20.7217 10.3774 20.646 10.4409 20.5825L15.2969 15.7266L10.4409 10.8633C10.3774 10.7998 10.3335 10.7266 10.3091 10.6436C10.2896 10.5605 10.2896 10.4775 10.3091 10.3945C10.3335 10.3066 10.3774 10.2334 10.4409 10.1748C10.5044 10.1064 10.5776 10.0625 10.6606 10.043C10.7437 10.0186 10.8267 10.0186 10.9097 10.043C10.9976 10.0625 11.0732 10.1064 11.1367 10.1748L16 15.0308L20.856 10.1748C20.9146 10.1064 20.9854 10.0625 21.0684 10.043C21.1562 10.0186 21.2417 10.0186 21.3247 10.043C21.4077 10.0625 21.4834 10.1064 21.5518 10.1748C21.6152 10.2334 21.6567 10.3066 21.6763 10.3945C21.7007 10.4775 21.7007 10.5605 21.6763 10.6436C21.6567 10.7266 21.6152 10.7998 21.5518 10.8633L16.6958 15.7266L21.5518 20.5825C21.6152 20.646 21.6567 20.7217 21.6763 20.8096C21.6958 20.8926 21.6958 20.9756 21.6763 21.0586C21.6567 21.1416 21.6152 21.2148 21.5518 21.2783C21.4883 21.3467 21.4126 21.3906 21.3247 21.4102C21.2417 21.4297 21.1562 21.4272 21.0684 21.4028C20.9854 21.3833 20.9146 21.3418 20.856 21.2783L16 16.4224L11.1367 21.2783C11.0732 21.3418 11 21.3833 10.917 21.4028C10.834 21.4272 10.7485 21.4272 10.6606 21.4028C10.5776 21.3833 10.5044 21.3418 10.4409 21.2783Z" fill="black"/>
</svg>
