<svg width="12" height="11" viewBox="0 0 12 11" fill="none" xmlns="http://www.w3.org/2000/svg">
<path d="M11.9297 5.35938C11.9297 5.53646 11.8568 5.69271 11.7109 5.82812L7.67969 9.85156C7.54427 9.98177 7.39062 10.0469 7.21875 10.0469C7.04688 10.0469 6.90104 9.98958 6.78125 9.875C6.66667 9.76042 6.60938 9.61458 6.60938 9.4375C6.60938 9.35417 6.6224 9.27344 6.64844 9.19531C6.67969 9.11719 6.72396 9.05208 6.78125 9L7.85938 7.88281L10.5 5.50781L10.6406 5.84375L8.5625 5.99219H1.1875C1 5.99219 0.848958 5.93229 0.734375 5.8125C0.619792 5.69271 0.5625 5.54167 0.5625 5.35938C0.5625 5.17708 0.619792 5.02604 0.734375 4.90625C0.848958 4.78646 1 4.72656 1.1875 4.72656H8.5625L10.6406 4.875L10.5 5.21875L7.85938 2.83594L6.78125 1.71875C6.72396 1.66667 6.67969 1.60156 6.64844 1.52344C6.6224 1.44531 6.60938 1.36458 6.60938 1.28125C6.60938 1.10417 6.66667 0.958333 6.78125 0.84375C6.90104 0.729167 7.04688 0.671875 7.21875 0.671875C7.39062 0.671875 7.54427 0.736979 7.67969 0.867188L11.7109 4.89062C11.8568 5.02604 11.9297 5.18229 11.9297 5.35938Z" fill="white"/>
</svg>
