<svg width="12" height="10" viewBox="0 0 12 10" fill="none" xmlns="http://www.w3.org/2000/svg">
<path d="M11.9297 4.85938C11.9297 5.03646 11.8568 5.19271 11.7109 5.32812L7.67969 9.35156C7.54427 9.48177 7.39062 9.54688 7.21875 9.54688C7.04688 9.54688 6.90104 9.48958 6.78125 9.375C6.66667 9.26042 6.60938 9.11458 6.60938 8.9375C6.60938 8.85417 6.6224 8.77344 6.64844 8.69531C6.67969 8.61719 6.72396 8.55208 6.78125 8.5L7.85938 7.38281L10.5 5.00781L10.6406 5.34375L8.5625 5.49219H1.1875C1 5.49219 0.848958 5.43229 0.734375 5.3125C0.619792 5.19271 0.5625 5.04167 0.5625 4.85938C0.5625 4.67708 0.619792 4.52604 0.734375 4.40625C0.848958 4.28646 1 4.22656 1.1875 4.22656H8.5625L10.6406 4.375L10.5 4.71875L7.85938 2.33594L6.78125 1.21875C6.72396 1.16667 6.67969 1.10156 6.64844 1.02344C6.6224 0.945312 6.60938 0.864583 6.60938 0.78125C6.60938 0.604167 6.66667 0.458333 6.78125 0.34375C6.90104 0.229167 7.04688 0.171875 7.21875 0.171875C7.39062 0.171875 7.54427 0.236979 7.67969 0.367188L11.7109 4.39062C11.8568 4.52604 11.9297 4.68229 11.9297 4.85938Z" fill="black"/>
</svg>
