<svg width="21" height="18" viewBox="0 0 21 18" fill="none" xmlns="http://www.w3.org/2000/svg">
<path d="M20.252 9.12891C20.252 9.4388 20.1243 9.71224 19.8691 9.94922L12.8145 16.9902C12.5775 17.2181 12.3086 17.332 12.0078 17.332C11.707 17.332 11.4518 17.2318 11.2422 17.0312C11.0417 16.8307 10.9414 16.5755 10.9414 16.2656C10.9414 16.1198 10.9642 15.9785 11.0098 15.8418C11.0645 15.7051 11.1419 15.5911 11.2422 15.5L13.1289 13.5449L17.75 9.38867L17.9961 9.97656L14.3594 10.2363H1.45312C1.125 10.2363 0.860677 10.1315 0.660156 9.92188C0.459635 9.71224 0.359375 9.44792 0.359375 9.12891C0.359375 8.8099 0.459635 8.54557 0.660156 8.33594C0.860677 8.1263 1.125 8.02148 1.45312 8.02148H14.3594L17.9961 8.28125L17.75 8.88281L13.1289 4.71289L11.2422 2.75781C11.1419 2.66667 11.0645 2.55273 11.0098 2.41602C10.9642 2.2793 10.9414 2.13802 10.9414 1.99219C10.9414 1.68229 11.0417 1.42708 11.2422 1.22656C11.4518 1.02604 11.707 0.925781 12.0078 0.925781C12.3086 0.925781 12.5775 1.03971 12.8145 1.26758L19.8691 8.30859C20.1243 8.54557 20.252 8.81901 20.252 9.12891Z" fill="white" fill-opacity="0.6"/>
</svg>
