<svg width="14" height="17" viewBox="0 0 14 17" fill="none" xmlns="http://www.w3.org/2000/svg">
<path d="M2.78125 16.8291C2.06836 16.8291 1.53125 16.6484 1.16992 16.2871C0.808594 15.9307 0.62793 15.3984 0.62793 14.6904V7.19775C0.62793 6.48975 0.808594 5.95752 1.16992 5.60107C1.53125 5.23975 2.06836 5.05908 2.78125 5.05908H4.8833V5.95996H2.80322C2.38818 5.95996 2.0708 6.06982 1.85107 6.28955C1.63623 6.50439 1.52881 6.82422 1.52881 7.24902V14.6392C1.52881 15.064 1.63623 15.3838 1.85107 15.5986C2.0708 15.8184 2.38818 15.9282 2.80322 15.9282H11.1968C11.6021 15.9282 11.9146 15.8184 12.1343 15.5986C12.3589 15.3838 12.4712 15.064 12.4712 14.6392V7.24902C12.4712 6.82422 12.3589 6.50439 12.1343 6.28955C11.9146 6.06982 11.6021 5.95996 11.1968 5.95996H9.12402V5.05908H11.2188C11.9316 5.05908 12.4688 5.23975 12.8301 5.60107C13.1914 5.9624 13.3721 6.49463 13.3721 7.19775V14.6904C13.3721 15.3887 13.1914 15.9185 12.8301 16.2798C12.4688 16.646 11.9316 16.8291 11.2188 16.8291H2.78125ZM7 11.1895C6.87793 11.1895 6.77295 11.1479 6.68506 11.0649C6.59717 10.9771 6.55322 10.8721 6.55322 10.75V2.86182L6.58984 1.79248L5.92334 2.47363L4.67822 3.77002C4.6001 3.86279 4.49756 3.90918 4.37061 3.90918C4.25342 3.90918 4.15576 3.87012 4.07764 3.79199C4.00439 3.71387 3.96777 3.61865 3.96777 3.50635C3.96777 3.39893 4.00928 3.30127 4.09229 3.21338L6.67773 0.693848C6.73145 0.635254 6.78271 0.596191 6.83154 0.57666C6.88525 0.552246 6.94141 0.540039 7 0.540039C7.05859 0.540039 7.1123 0.552246 7.16113 0.57666C7.21484 0.596191 7.26855 0.635254 7.32227 0.693848L9.90039 3.21338C9.98828 3.30127 10.0322 3.39893 10.0322 3.50635C10.0322 3.61865 9.99316 3.71387 9.91504 3.79199C9.83691 3.87012 9.73926 3.90918 9.62207 3.90918C9.5 3.90918 9.39746 3.86279 9.31445 3.77002L8.06934 2.47363L7.41748 1.79248L7.44678 2.86182V10.75C7.44678 10.8721 7.40283 10.9771 7.31494 11.0649C7.22705 11.1479 7.12207 11.1895 7 11.1895Z" fill="white"/>
</svg>
